<svg xmlns="http://www.w3.org/2000/svg" xmlns:xlink="http://www.w3.org/1999/xlink" width="200" zoomAndPan="magnify" viewBox="0 0 150 149.999998" height="200" preserveAspectRatio="xMidYMid meet" version="1.0"><defs><clipPath id="id1"><path d="M 19 17 L 132.445312 17 L 132.445312 41 L 19 41 Z M 19 17 " clip-rule="nonzero"/></clipPath></defs><path fill="rgb(21.569824%, 24.708557%, 35.289001%)" d="M 140.246094 4.679688 C 143.03125 4.679688 145.320312 6.96875 145.320312 9.753906 L 145.320312 140.246094 C 145.320312 143.03125 143.03125 145.320312 140.246094 145.320312 L 9.753906 145.320312 C 6.96875 145.320312 4.679688 143.03125 4.679688 140.246094 L 4.679688 9.753906 C 4.679688 6.96875 6.96875 4.679688 9.753906 4.679688 L 140.246094 4.679688 M 140.246094 0 L 9.753906 0 C 4.378906 0 0 4.378906 0 9.753906 L 0 140.246094 C 0 145.621094 4.378906 150 9.753906 150 L 140.246094 150 C 145.621094 150 150 145.621094 150 140.246094 L 150 9.753906 C 150 4.378906 145.621094 0 140.246094 0 " fill-opacity="1" fill-rule="nonzero"/><path fill="rgb(28.239441%, 33.729553%, 52.549744%)" d="M 48.578125 94.863281 C 49.648438 94.863281 50.515625 93.988281 50.515625 92.917969 L 50.515625 50.160156 C 50.515625 49.085938 49.648438 48.21875 48.578125 48.21875 L 33.058594 48.21875 C 31.988281 48.21875 31.117188 49.085938 31.117188 50.160156 L 31.117188 92.917969 C 31.117188 93.988281 31.988281 94.863281 33.058594 94.863281 Z M 48.578125 94.863281 " fill-opacity="1" fill-rule="nonzero"/><path fill="rgb(28.239441%, 33.729553%, 52.549744%)" d="M 118.417969 94.863281 C 119.484375 94.863281 120.355469 93.988281 120.355469 92.917969 L 120.355469 50.160156 C 120.355469 49.085938 119.484375 48.21875 118.417969 48.21875 L 102.898438 48.21875 C 101.828125 48.21875 100.957031 49.085938 100.957031 50.160156 L 100.957031 92.917969 C 100.957031 93.988281 101.828125 94.863281 102.898438 94.863281 Z M 118.417969 94.863281 " fill-opacity="1" fill-rule="nonzero"/><g clip-path="url(#id1)"><path fill="rgb(28.239441%, 33.729553%, 52.549744%)" d="M 21.316406 40.441406 L 130.398438 40.441406 C 130.425781 40.4375 130.453125 40.4375 130.476562 40.441406 C 131.546875 40.441406 132.414062 39.570312 132.414062 38.5 C 132.414062 37.539062 131.722656 36.742188 130.808594 36.582031 L 75.261719 17.226562 C 74.835938 17.082031 74.375 17.085938 73.960938 17.238281 L 20.652344 36.675781 C 19.769531 37 19.242188 37.910156 19.40625 38.839844 C 19.570312 39.765625 20.375 40.441406 21.316406 40.441406 Z M 21.316406 40.441406 " fill-opacity="1" fill-rule="nonzero"/></g><path fill="rgb(28.239441%, 33.729553%, 52.549744%)" d="M 75.738281 82.785156 C 74.304688 82.785156 70.976562 82.359375 70.976562 78.398438 C 70.976562 77.324219 70.105469 76.453125 69.035156 76.453125 C 67.964844 76.453125 67.097656 77.324219 67.097656 78.398438 C 67.097656 82.730469 69.765625 85.820312 73.910156 86.523438 C 73.851562 86.703125 73.792969 86.890625 73.792969 87.089844 L 73.792969 90.976562 C 73.792969 92.046875 74.664062 92.917969 75.734375 92.917969 C 76.804688 92.917969 77.671875 92.046875 77.671875 90.976562 L 77.671875 87.089844 C 77.671875 86.882812 77.613281 86.699219 77.558594 86.523438 C 81.699219 85.820312 84.367188 82.734375 84.367188 78.398438 C 84.367188 73.390625 81.578125 71.835938 77.722656 69.6875 L 75.609375 68.496094 C 71.785156 66.359375 70.972656 65.816406 70.972656 63.195312 C 70.972656 59.070312 74.617188 58.75 75.734375 58.75 C 77.132812 58.75 80.398438 59.183594 80.398438 63.195312 C 80.398438 64.265625 81.269531 65.136719 82.335938 65.136719 C 83.40625 65.136719 84.277344 64.265625 84.277344 63.195312 C 84.277344 58.875 81.691406 55.792969 77.671875 55.046875 L 77.671875 52.105469 C 77.671875 51.03125 76.804688 50.160156 75.734375 50.160156 C 74.664062 50.160156 73.792969 51.03125 73.792969 52.105469 L 73.792969 55.042969 C 69.71875 55.777344 67.09375 58.867188 67.09375 63.195312 C 67.09375 68.1875 69.871094 69.746094 73.71875 71.890625 L 75.839844 73.082031 C 79.679688 75.226562 80.488281 75.765625 80.488281 78.398438 C 80.496094 82.351562 77.167969 82.785156 75.738281 82.785156 Z M 75.738281 82.785156 " fill-opacity="1" fill-rule="nonzero"/><path fill="rgb(28.239441%, 33.729553%, 52.549744%)" d="M 27.238281 100.695312 L 27.238281 110.414062 L 124.238281 110.414062 L 124.238281 100.695312 C 124.238281 99.625 123.363281 98.75 122.296875 98.75 L 29.175781 98.75 C 28.105469 98.75 27.238281 99.625 27.238281 100.695312 Z M 27.238281 100.695312 " fill-opacity="1" fill-rule="nonzero"/><path fill="rgb(28.239441%, 33.729553%, 52.549744%)" d="M 130.058594 114.300781 L 21.417969 114.300781 C 20.347656 114.300781 19.476562 115.175781 19.476562 116.242188 L 19.476562 131.792969 C 19.476562 132.859375 20.347656 133.734375 21.417969 133.734375 L 130.058594 133.734375 C 131.125 133.734375 131.996094 132.859375 131.996094 131.792969 L 131.996094 116.242188 C 131.996094 115.175781 131.125 114.300781 130.058594 114.300781 Z M 130.058594 114.300781 " fill-opacity="1" fill-rule="nonzero"/></svg>