<svg xmlns="http://www.w3.org/2000/svg" xmlns:xlink="http://www.w3.org/1999/xlink" width="50" zoomAndPan="magnify" viewBox="0 0 37.5 37.499999" height="50" preserveAspectRatio="xMidYMid meet" version="1.0"><defs><clipPath id="id1"><path d="M 21 1 L 36.226562 1 L 36.226562 16 L 21 16 Z M 21 1 " clip-rule="nonzero"/></clipPath><clipPath id="id2"><path d="M 1 21 L 16 21 L 16 36.226562 L 1 36.226562 Z M 1 21 " clip-rule="nonzero"/></clipPath><clipPath id="id3"><path d="M 21 21 L 36.226562 21 L 36.226562 36.226562 L 21 36.226562 Z M 21 21 " clip-rule="nonzero"/></clipPath></defs><g clip-path="url(#id1)"><path fill="rgb(100%, 100%, 100%)" d="M 33.699219 13.230469 L 25.183594 13.542969 L 35.867188 2.855469 C 36.265625 2.457031 36.265625 1.816406 35.867188 1.417969 C 35.472656 1.023438 34.828125 1.023438 34.433594 1.417969 L 23.75 12.101562 L 24.058594 3.589844 L 22.027344 3.519531 L 21.585938 15.707031 L 33.769531 15.261719 Z M 33.699219 13.230469 " fill-opacity="1" fill-rule="nonzero"/></g><g clip-path="url(#id2)"><path fill="rgb(100%, 100%, 100%)" d="M 3.808594 23.839844 L 12.324219 23.527344 L 1.390625 34.460938 C 0.992188 34.859375 0.992188 35.5 1.390625 35.898438 C 1.585938 36.097656 1.847656 36.195312 2.105469 36.195312 C 2.367188 36.195312 2.625 36.097656 2.824219 35.898438 L 13.761719 24.960938 L 13.449219 33.480469 L 15.480469 33.550781 L 15.925781 21.367188 L 3.738281 21.808594 Z M 3.808594 23.839844 " fill-opacity="1" fill-rule="nonzero"/></g><g clip-path="url(#id3)"><path fill="rgb(100%, 100%, 100%)" d="M 25.183594 23.777344 L 33.699219 24.089844 L 33.769531 22.058594 L 21.582031 21.617188 L 22.027344 33.800781 L 24.058594 33.730469 L 23.746094 25.210938 L 34.433594 35.898438 C 34.628906 36.097656 34.890625 36.195312 35.152344 36.195312 C 35.410156 36.195312 35.671875 36.097656 35.867188 35.898438 C 36.265625 35.5 36.265625 34.859375 35.867188 34.460938 Z M 25.183594 23.777344 " fill-opacity="1" fill-rule="nonzero"/></g><path fill="rgb(100%, 100%, 100%)" d="M 12.324219 13.792969 L 3.808594 13.480469 L 3.734375 15.511719 L 15.921875 15.953125 L 15.480469 3.765625 L 13.449219 3.839844 L 13.757812 12.351562 L 2.824219 1.417969 C 2.429688 1.023438 1.785156 1.023438 1.390625 1.417969 C 0.992188 1.816406 0.992188 2.457031 1.390625 2.855469 Z M 12.324219 13.792969 " fill-opacity="1" fill-rule="nonzero"/></svg>