<svg xmlns="http://www.w3.org/2000/svg" xmlns:xlink="http://www.w3.org/1999/xlink" width="15px" zoomAndPan="magnify" viewBox="0 0 37.5 37.499999" height="15px" preserveAspectRatio="xMidYMid meet" version="1.0"><defs><clipPath id="id1"><path d="M 0.824219 0.824219 L 36.824219 0.824219 L 36.824219 36.824219 L 0.824219 36.824219 Z M 0.824219 0.824219 " clip-rule="nonzero"/></clipPath></defs><g clip-path="url(#id1)"><path fill="white" d="M 36.832031 8.160156 C 36.832031 7.734375 36.664062 7.328125 36.359375 7.027344 L 30.78125 1.449219 C 30.15625 0.824219 29.140625 0.824219 28.515625 1.449219 L 18.644531 11.320312 L 9.296875 1.972656 C 8.667969 1.347656 7.652344 1.347656 7.027344 1.972656 L 1.449219 7.550781 C 0.824219 8.175781 0.824219 9.191406 1.449219 9.820312 L 10.796875 19.167969 L 1.972656 27.992188 C 1.347656 28.617188 1.347656 29.632812 1.972656 30.261719 L 7.550781 35.835938 C 7.851562 36.136719 8.257812 36.308594 8.683594 36.308594 C 9.109375 36.308594 9.519531 36.140625 9.820312 35.835938 L 18.644531 27.011719 L 27.992188 36.359375 C 28.304688 36.675781 28.714844 36.832031 29.125 36.832031 C 29.535156 36.832031 29.945312 36.675781 30.261719 36.359375 L 35.839844 30.785156 C 36.140625 30.484375 36.308594 30.074219 36.308594 29.648438 C 36.308594 29.222656 36.140625 28.816406 35.839844 28.515625 L 26.488281 19.167969 L 36.359375 9.296875 C 36.660156 8.996094 36.832031 8.585938 36.832031 8.160156 Z M 36.832031 8.160156 " fill-opacity="1" fill-rule="nonzero"/></g></svg>