<svg xmlns="http://www.w3.org/2000/svg" xmlns:xlink="http://www.w3.org/1999/xlink" width="30" zoomAndPan="magnify" viewBox="0 0 375 374.999991" height="30" preserveAspectRatio="xMidYMid meet" version="1.0"><defs><g><g id="id1"/></g><clipPath id="id2"><path d="M 0 0 L 373.261719 0 L 373.261719 373.40625 L 0 373.40625 Z M 0 0 " clip-rule="nonzero"/></clipPath></defs><g clip-path="url(#id2)"><path fill="rgb(0%, 0%, 0%)" d="M 60.867188 373.40625 L 311.40625 373.40625 C 345.515625 373.40625 373.261719 345.65625 373.261719 311.550781 L 373.261719 61.011719 C 373.261719 26.902344 345.515625 -0.84375 311.410156 -0.84375 L 60.867188 -0.84375 C 26.761719 -0.84375 -0.988281 26.902344 -0.988281 61.011719 L -0.988281 311.550781 C -0.988281 345.65625 26.761719 373.40625 60.867188 373.40625 Z M 60.867188 373.40625 " fill-opacity="1" fill-rule="nonzero"/></g><g fill="rgb(100%, 8.628845%, 8.628845%)" fill-opacity="1"><g transform="translate(31.07604, 319.612088)"><g><path d="M 286.9375 -237.15625 L 286.9375 0 L 215.828125 0 L 215.828125 -145.78125 L 153.25 -64.71875 L 90.671875 -146.140625 L 90.671875 0 L 23.109375 0 L 23.109375 -237.15625 L 94.9375 -237.15625 L 155.375 -157.15625 L 217.25 -237.15625 Z M 286.9375 -237.15625 "/></g></g></g></svg>