<svg xmlns="http://www.w3.org/2000/svg" xmlns:xlink="http://www.w3.org/1999/xlink" width="50" zoomAndPan="magnify" viewBox="0 0 37.5 37.499999" height="50" preserveAspectRatio="xMidYMid meet" version="1.0"><defs><clipPath id="id1"><path d="M 0 0 L 37.007812 0 L 37.007812 37.007812 L 0 37.007812 Z M 0 0 " clip-rule="nonzero"/></clipPath><clipPath id="id2"><path d="M 0.789062 0.789062 L 16 0.789062 L 16 16 L 0.789062 16 Z M 0.789062 0.789062 " clip-rule="nonzero"/></clipPath><clipPath id="id3"><path d="M 22 0.789062 L 36.789062 0.789062 L 36.789062 16 L 22 16 Z M 22 0.789062 " clip-rule="nonzero"/></clipPath><clipPath id="id4"><path d="M 22 22 L 36.789062 22 L 36.789062 36.789062 L 22 36.789062 Z M 22 22 " clip-rule="nonzero"/></clipPath><clipPath id="id5"><path d="M 0.789062 22 L 16 22 L 16 36.789062 L 0.789062 36.789062 Z M 0.789062 22 " clip-rule="nonzero"/></clipPath></defs><g clip-path="url(#id1)"><path fill="rgb(100%, 100%, 100%)" d="M 0 0 L 37.5 0 L 37.5 82.5 L 0 82.5 Z M 0 0 " fill-opacity="1" fill-rule="nonzero"/><path fill="rgb(0%, 0%, 0%)" d="M 0 0 L 37.5 0 L 37.5 37.5 L 0 37.5 Z M 0 0 " fill-opacity="1" fill-rule="nonzero"/><path fill="rgb(100%, 100%, 100%)" d="M 0 0 L 37.5 0 L 37.5 37.5 L 0 37.5 Z M 0 0 " fill-opacity="1" fill-rule="nonzero"/><path fill="rgb(0%, 0%, 0%)" d="M 0 0 L 37.5 0 L 37.5 37.5 L 0 37.5 Z M 0 0 " fill-opacity="1" fill-rule="nonzero"/></g><g clip-path="url(#id2)"><path fill="rgb(100%, 100%, 100%)" d="M 11.820312 4.269531 L 11.820312 0.789062 L 0.789062 0.789062 L 0.789062 11.8125 L 4.269531 11.8125 L 4.269531 6.734375 L 12.910156 15.375 L 15.375 12.910156 L 6.734375 4.269531 Z M 11.820312 4.269531 " fill-opacity="1" fill-rule="nonzero"/></g><g clip-path="url(#id3)"><path fill="rgb(100%, 100%, 100%)" d="M 25.765625 0.789062 L 25.765625 4.269531 L 30.839844 4.269531 L 22.199219 12.910156 L 24.664062 15.375 L 33.304688 6.734375 L 33.304688 11.820312 L 36.789062 11.820312 L 36.789062 0.789062 Z M 25.765625 0.789062 " fill-opacity="1" fill-rule="nonzero"/></g><g clip-path="url(#id4)"><path fill="rgb(100%, 100%, 100%)" d="M 33.304688 30.839844 L 24.664062 22.199219 L 22.199219 24.664062 L 30.839844 33.304688 L 25.753906 33.304688 L 25.753906 36.789062 L 36.789062 36.789062 L 36.789062 25.765625 L 33.304688 25.765625 Z M 33.304688 30.839844 " fill-opacity="1" fill-rule="nonzero"/></g><g clip-path="url(#id5)"><path fill="rgb(100%, 100%, 100%)" d="M 12.910156 22.199219 L 4.269531 30.839844 L 4.269531 25.753906 L 0.789062 25.753906 L 0.789062 36.789062 L 11.8125 36.789062 L 11.8125 33.304688 L 6.734375 33.304688 L 15.375 24.664062 Z M 12.910156 22.199219 " fill-opacity="1" fill-rule="nonzero"/></g></svg>