<svg xmlns="http://www.w3.org/2000/svg" xmlns:xlink="http://www.w3.org/1999/xlink" width="50" zoomAndPan="magnify" viewBox="0 0 37.5 37.499999" height="50" preserveAspectRatio="xMidYMid meet" version="1.0"><defs><clipPath id="id1"><path d="M 21 21 L 36.75 21 L 36.75 36.75 L 21 36.75 Z M 21 21 " clip-rule="nonzero"/></clipPath><clipPath id="id2"><path d="M 0.75 0.75 L 16 0.75 L 16 16 L 0.75 16 Z M 0.75 0.75 " clip-rule="nonzero"/></clipPath><clipPath id="id3"><path d="M 21 0.75 L 36.75 0.75 L 36.75 16 L 21 16 Z M 21 0.75 " clip-rule="nonzero"/></clipPath><clipPath id="id4"><path d="M 0.75 21 L 16 21 L 16 36.75 L 0.75 36.75 Z M 0.75 21 " clip-rule="nonzero"/></clipPath></defs><g clip-path="url(#id1)"><path fill="rgb(100%, 100%, 100%)" d="M 36.5625 36.363281 C 36.570312 36.351562 36.582031 36.339844 36.589844 36.328125 C 36.597656 36.3125 36.605469 36.296875 36.617188 36.285156 C 36.621094 36.273438 36.628906 36.261719 36.636719 36.25 C 36.644531 36.234375 36.652344 36.21875 36.660156 36.203125 C 36.664062 36.191406 36.671875 36.179688 36.675781 36.164062 C 36.683594 36.148438 36.6875 36.136719 36.691406 36.121094 C 36.699219 36.105469 36.703125 36.09375 36.707031 36.078125 C 36.710938 36.0625 36.714844 36.046875 36.71875 36.03125 C 36.722656 36.015625 36.726562 36.003906 36.730469 35.988281 C 36.734375 35.96875 36.734375 35.953125 36.738281 35.933594 C 36.742188 35.921875 36.742188 35.910156 36.742188 35.894531 C 36.746094 35.863281 36.75 35.832031 36.75 35.800781 L 36.75 26.828125 C 36.75 26.308594 36.324219 25.882812 35.800781 25.882812 C 35.277344 25.882812 34.855469 26.308594 34.855469 26.828125 L 34.855469 33.515625 L 23.355469 22.015625 C 22.984375 21.644531 22.386719 21.644531 22.015625 22.015625 C 21.644531 22.386719 21.644531 22.984375 22.015625 23.355469 L 33.515625 34.855469 L 26.832031 34.855469 C 26.308594 34.855469 25.882812 35.277344 25.882812 35.800781 C 25.882812 36.324219 26.308594 36.75 26.832031 36.75 L 35.800781 36.75 C 35.832031 36.75 35.863281 36.746094 35.894531 36.746094 C 35.910156 36.742188 35.921875 36.742188 35.9375 36.738281 C 35.953125 36.734375 35.96875 36.734375 35.988281 36.730469 C 36.003906 36.726562 36.019531 36.722656 36.035156 36.71875 C 36.046875 36.714844 36.0625 36.714844 36.078125 36.707031 C 36.089844 36.703125 36.105469 36.699219 36.121094 36.691406 C 36.136719 36.6875 36.148438 36.683594 36.164062 36.675781 C 36.179688 36.671875 36.191406 36.664062 36.203125 36.660156 C 36.21875 36.652344 36.234375 36.644531 36.25 36.636719 C 36.261719 36.628906 36.273438 36.621094 36.285156 36.617188 C 36.300781 36.605469 36.3125 36.597656 36.328125 36.589844 C 36.339844 36.582031 36.351562 36.570312 36.367188 36.5625 C 36.378906 36.550781 36.390625 36.542969 36.402344 36.535156 C 36.421875 36.515625 36.445312 36.496094 36.464844 36.480469 C 36.464844 36.476562 36.46875 36.472656 36.472656 36.472656 C 36.472656 36.46875 36.476562 36.46875 36.476562 36.464844 C 36.496094 36.445312 36.515625 36.425781 36.535156 36.402344 C 36.542969 36.390625 36.550781 36.378906 36.5625 36.363281 " fill-opacity="1" fill-rule="nonzero"/></g><g clip-path="url(#id2)"><path fill="rgb(100%, 100%, 100%)" d="M 0.910156 1.171875 C 0.902344 1.1875 0.894531 1.199219 0.886719 1.214844 C 0.878906 1.226562 0.871094 1.238281 0.863281 1.253906 C 0.855469 1.265625 0.847656 1.28125 0.84375 1.292969 C 0.835938 1.308594 0.828125 1.324219 0.824219 1.335938 C 0.816406 1.351562 0.8125 1.363281 0.808594 1.378906 C 0.800781 1.394531 0.796875 1.410156 0.792969 1.425781 C 0.789062 1.4375 0.785156 1.453125 0.78125 1.46875 C 0.777344 1.484375 0.773438 1.5 0.769531 1.515625 C 0.765625 1.53125 0.765625 1.546875 0.761719 1.566406 C 0.761719 1.578125 0.757812 1.59375 0.757812 1.605469 C 0.753906 1.636719 0.75 1.667969 0.75 1.699219 L 0.75 10.671875 C 0.75 11.195312 1.175781 11.617188 1.699219 11.617188 C 2.222656 11.617188 2.644531 11.195312 2.644531 10.671875 L 2.644531 3.984375 L 14.144531 15.484375 C 14.328125 15.667969 14.570312 15.761719 14.8125 15.761719 C 15.054688 15.761719 15.296875 15.667969 15.484375 15.484375 C 15.855469 15.113281 15.855469 14.515625 15.484375 14.144531 L 3.984375 2.648438 L 10.667969 2.648438 C 11.191406 2.648438 11.617188 2.222656 11.617188 1.699219 C 11.617188 1.175781 11.191406 0.75 10.667969 0.75 L 1.699219 0.75 C 1.667969 0.75 1.636719 0.753906 1.605469 0.757812 C 1.589844 0.757812 1.578125 0.761719 1.5625 0.761719 C 1.546875 0.765625 1.53125 0.765625 1.511719 0.769531 C 1.496094 0.773438 1.480469 0.777344 1.464844 0.78125 C 1.453125 0.785156 1.4375 0.789062 1.425781 0.792969 C 1.40625 0.796875 1.394531 0.804688 1.378906 0.808594 C 1.363281 0.8125 1.351562 0.816406 1.335938 0.824219 C 1.320312 0.828125 1.308594 0.835938 1.292969 0.84375 C 1.28125 0.851562 1.265625 0.855469 1.253906 0.863281 C 1.238281 0.871094 1.226562 0.878906 1.210938 0.886719 C 1.199219 0.894531 1.183594 0.902344 1.171875 0.910156 C 1.15625 0.921875 1.144531 0.933594 1.128906 0.941406 C 1.117188 0.949219 1.109375 0.957031 1.097656 0.964844 C 1.050781 1.007812 1.003906 1.050781 0.964844 1.097656 C 0.957031 1.109375 0.949219 1.121094 0.941406 1.128906 C 0.933594 1.144531 0.921875 1.160156 0.910156 1.171875 " fill-opacity="1" fill-rule="nonzero"/></g><g clip-path="url(#id3)"><path fill="rgb(100%, 100%, 100%)" d="M 22.6875 15.761719 C 22.929688 15.761719 23.171875 15.667969 23.355469 15.484375 L 34.855469 3.984375 L 34.855469 10.667969 C 34.855469 11.191406 35.277344 11.617188 35.800781 11.617188 C 36.324219 11.617188 36.75 11.191406 36.75 10.667969 L 36.75 1.699219 C 36.75 1.667969 36.746094 1.636719 36.742188 1.605469 C 36.742188 1.589844 36.742188 1.578125 36.738281 1.566406 C 36.734375 1.546875 36.734375 1.53125 36.730469 1.511719 C 36.726562 1.496094 36.722656 1.484375 36.71875 1.46875 C 36.714844 1.453125 36.710938 1.4375 36.707031 1.421875 C 36.703125 1.40625 36.699219 1.394531 36.691406 1.378906 C 36.6875 1.363281 36.683594 1.351562 36.675781 1.335938 C 36.671875 1.320312 36.664062 1.308594 36.660156 1.296875 C 36.652344 1.28125 36.644531 1.265625 36.636719 1.25 C 36.628906 1.238281 36.621094 1.226562 36.617188 1.214844 C 36.605469 1.199219 36.597656 1.1875 36.589844 1.171875 C 36.582031 1.160156 36.570312 1.144531 36.5625 1.132812 C 36.550781 1.121094 36.542969 1.109375 36.535156 1.097656 C 36.515625 1.074219 36.496094 1.054688 36.476562 1.03125 C 36.472656 1.03125 36.472656 1.03125 36.472656 1.027344 C 36.46875 1.027344 36.46875 1.023438 36.46875 1.023438 C 36.445312 1.003906 36.425781 0.984375 36.402344 0.964844 C 36.390625 0.957031 36.378906 0.949219 36.367188 0.941406 C 36.355469 0.929688 36.339844 0.917969 36.328125 0.910156 C 36.3125 0.902344 36.300781 0.894531 36.285156 0.886719 C 36.273438 0.878906 36.261719 0.871094 36.246094 0.863281 C 36.234375 0.855469 36.21875 0.847656 36.207031 0.84375 C 36.191406 0.835938 36.179688 0.828125 36.164062 0.824219 C 36.148438 0.816406 36.136719 0.8125 36.121094 0.808594 C 36.105469 0.800781 36.09375 0.796875 36.078125 0.792969 C 36.0625 0.789062 36.046875 0.785156 36.035156 0.78125 C 36.019531 0.777344 36.003906 0.773438 35.988281 0.769531 C 35.96875 0.765625 35.953125 0.765625 35.9375 0.761719 C 35.921875 0.757812 35.910156 0.757812 35.894531 0.753906 C 35.863281 0.753906 35.835938 0.75 35.804688 0.75 C 35.804688 0.75 35.804688 0.75 35.800781 0.75 L 26.832031 0.75 C 26.308594 0.75 25.882812 1.175781 25.882812 1.699219 C 25.882812 2.222656 26.308594 2.644531 26.832031 2.644531 L 33.515625 2.644531 L 22.015625 14.144531 C 21.644531 14.515625 21.644531 15.113281 22.015625 15.484375 C 22.199219 15.667969 22.445312 15.761719 22.6875 15.761719 " fill-opacity="1" fill-rule="nonzero"/></g><g clip-path="url(#id4)"><path fill="rgb(100%, 100%, 100%)" d="M 14.144531 22.015625 L 2.644531 33.511719 L 2.644531 26.828125 C 2.644531 26.304688 2.222656 25.882812 1.699219 25.882812 C 1.175781 25.882812 0.75 26.304688 0.75 26.828125 L 0.75 35.800781 C 0.75 35.832031 0.753906 35.863281 0.757812 35.894531 C 0.757812 35.90625 0.757812 35.921875 0.761719 35.933594 C 0.765625 35.949219 0.765625 35.96875 0.769531 35.984375 C 0.773438 36 0.777344 36.015625 0.78125 36.03125 C 0.785156 36.046875 0.789062 36.0625 0.792969 36.074219 C 0.796875 36.089844 0.800781 36.105469 0.808594 36.121094 C 0.8125 36.132812 0.816406 36.148438 0.824219 36.164062 C 0.828125 36.175781 0.835938 36.191406 0.84375 36.203125 C 0.847656 36.21875 0.855469 36.234375 0.863281 36.246094 C 0.871094 36.257812 0.878906 36.273438 0.886719 36.285156 C 0.894531 36.296875 0.902344 36.3125 0.910156 36.328125 C 0.921875 36.339844 0.929688 36.355469 0.941406 36.367188 C 0.949219 36.378906 0.957031 36.390625 0.964844 36.402344 C 1.003906 36.449219 1.050781 36.492188 1.097656 36.53125 C 1.109375 36.542969 1.121094 36.550781 1.132812 36.558594 C 1.144531 36.566406 1.160156 36.578125 1.171875 36.585938 C 1.1875 36.597656 1.199219 36.605469 1.214844 36.613281 C 1.226562 36.621094 1.238281 36.628906 1.25 36.636719 C 1.265625 36.644531 1.28125 36.648438 1.296875 36.65625 C 1.308594 36.664062 1.324219 36.667969 1.335938 36.675781 C 1.351562 36.679688 1.367188 36.6875 1.378906 36.691406 C 1.394531 36.695312 1.410156 36.703125 1.421875 36.707031 C 1.4375 36.710938 1.453125 36.714844 1.46875 36.71875 C 1.484375 36.722656 1.496094 36.726562 1.511719 36.730469 C 1.53125 36.730469 1.546875 36.734375 1.5625 36.738281 C 1.578125 36.738281 1.589844 36.742188 1.605469 36.742188 C 1.636719 36.746094 1.667969 36.746094 1.699219 36.746094 L 10.667969 36.746094 C 11.191406 36.746094 11.617188 36.324219 11.617188 35.800781 C 11.617188 35.277344 11.191406 34.851562 10.667969 34.851562 L 3.984375 34.851562 L 15.484375 23.355469 C 15.855469 22.984375 15.855469 22.382812 15.484375 22.011719 C 15.113281 21.644531 14.515625 21.644531 14.144531 22.015625 " fill-opacity="1" fill-rule="nonzero"/></g></svg>