<svg xmlns="http://www.w3.org/2000/svg" xmlns:xlink="http://www.w3.org/1999/xlink" width="30" zoomAndPan="magnify" viewBox="0 0 375 374.999991" height="30" preserveAspectRatio="xMidYMid meet" version="1.0"><defs><g><g id="id1"/></g><clipPath id="id2"><path d="M 49.960938 55.960938 L 323.710938 55.960938 L 323.710938 329.710938 L 49.960938 329.710938 Z M 49.960938 55.960938 " clip-rule="nonzero"/></clipPath><clipPath id="id3"><path d="M 192.292969 253.484375 L 314.542969 253.484375 L 314.542969 375 L 192.292969 375 Z M 192.292969 253.484375 " clip-rule="nonzero"/></clipPath><clipPath id="id4"><path d="M 260.726562 137.539062 L 375 137.539062 L 375 253.789062 L 260.726562 253.789062 Z M 260.726562 137.539062 " clip-rule="nonzero"/></clipPath><clipPath id="id5"><path d="M 257.449219 252.949219 L 375 252.949219 L 375 375 L 257.449219 375 Z M 257.449219 252.949219 " clip-rule="nonzero"/></clipPath></defs><g clip-path="url(#id2)"><path fill="rgb(0%, 0%, 0%)" d="M 95.207031 329.710938 L 278.464844 329.710938 C 303.414062 329.710938 323.710938 309.414062 323.710938 284.46875 L 323.710938 101.207031 C 323.710938 76.257812 303.414062 55.960938 278.46875 55.960938 L 95.207031 55.960938 C 70.257812 55.960938 49.960938 76.257812 49.960938 101.207031 L 49.960938 284.464844 C 49.960938 309.414062 70.257812 329.710938 95.207031 329.710938 Z M 95.207031 329.710938 " fill-opacity="1" fill-rule="nonzero"/></g><g clip-path="url(#id3)"><path fill="rgb(100%, 8.628845%, 8.628845%)" d="M 222.871094 253.46875 C 205.992188 253.46875 192.308594 267.152344 192.308594 284.03125 L 192.308594 345.15625 C 192.308594 362.035156 205.992188 375.71875 222.871094 375.71875 L 283.996094 375.71875 C 300.871094 375.71875 314.558594 362.035156 314.558594 345.15625 L 314.558594 284.03125 C 314.558594 267.152344 300.871094 253.46875 283.996094 253.46875 Z M 222.871094 253.46875 " fill-opacity="1" fill-rule="nonzero"/></g><g clip-path="url(#id4)"><path fill="rgb(100%, 8.628845%, 8.628845%)" d="M 289.800781 137.523438 C 273.753906 137.523438 260.738281 150.535156 260.738281 166.585938 L 260.738281 224.710938 C 260.738281 240.761719 273.753906 253.773438 289.800781 253.773438 L 347.925781 253.773438 C 363.976562 253.773438 376.988281 240.761719 376.988281 224.710938 L 376.988281 166.585938 C 376.988281 150.535156 363.976562 137.523438 347.925781 137.523438 Z M 289.800781 137.523438 " fill-opacity="1" fill-rule="nonzero"/></g><g clip-path="url(#id5)"><path fill="rgb(100%, 8.628845%, 8.628845%)" d="M 290.464844 252.933594 C 272.242188 252.933594 257.464844 267.710938 257.464844 285.933594 L 257.464844 351.933594 C 257.464844 370.160156 272.242188 384.933594 290.464844 384.933594 L 356.464844 384.933594 C 374.691406 384.933594 389.464844 370.160156 389.464844 351.933594 L 389.464844 285.933594 C 389.464844 267.710938 374.691406 252.933594 356.464844 252.933594 Z M 290.464844 252.933594 " fill-opacity="1" fill-rule="nonzero"/></g><path fill="rgb(100%, 8.628845%, 8.628845%)" d="M 250.484375 201.601562 L 378.734375 201.601562 L 378.734375 325.351562 L 250.484375 325.351562 L 250.484375 201.601562 " fill-opacity="1" fill-rule="nonzero"/><path fill="rgb(0%, 0%, 0%)" d="M 132.421875 137.539062 L 323.671875 137.539062 L 323.671875 328.789062 L 132.421875 328.789062 L 132.421875 137.539062 " fill-opacity="1" fill-rule="nonzero"/><g fill="rgb(100%, 8.628845%, 8.628845%)" fill-opacity="1"><g transform="translate(73.402999, 281.249982)"><g><path d="M 209.78125 -173.390625 L 209.78125 0 L 157.796875 0 L 157.796875 -106.578125 L 112.046875 -47.3125 L 66.28125 -106.84375 L 66.28125 0 L 16.890625 0 L 16.890625 -173.390625 L 69.40625 -173.390625 L 113.59375 -114.90625 L 158.828125 -173.390625 Z M 209.78125 -173.390625 "/></g></g></g></svg>