<svg xmlns="http://www.w3.org/2000/svg" xmlns:xlink="http://www.w3.org/1999/xlink" width="30" zoomAndPan="magnify" viewBox="0 0 375 374.999991" height="30" preserveAspectRatio="xMidYMid meet" version="1.0"><defs><g><g id="id1"/></g><clipPath id="id2"><path d="M 50.710938 59.710938 L 324.460938 59.710938 L 324.460938 333.460938 L 50.710938 333.460938 Z M 50.710938 59.710938 " clip-rule="nonzero"/></clipPath></defs><path fill="rgb(100%, 8.628845%, 8.628845%)" d="M 227.15625 161.113281 L 494.90625 161.113281 L 494.90625 428.863281 L 227.15625 428.863281 L 227.15625 161.113281 " fill-opacity="1" fill-rule="nonzero"/><g clip-path="url(#id2)"><path fill="rgb(0%, 0%, 0%)" d="M 95.957031 333.460938 L 279.214844 333.460938 C 304.164062 333.460938 324.460938 313.164062 324.460938 288.21875 L 324.460938 104.957031 C 324.460938 80.007812 304.164062 59.710938 279.21875 59.710938 L 95.957031 59.710938 C 71.007812 59.710938 50.710938 80.007812 50.710938 104.957031 L 50.710938 288.214844 C 50.710938 313.164062 71.007812 333.460938 95.957031 333.460938 Z M 95.957031 333.460938 " fill-opacity="1" fill-rule="nonzero"/></g><path fill="rgb(0%, 0%, 0%)" d="M 133.171875 142.789062 L 324.421875 142.789062 L 324.421875 334.039062 L 133.171875 334.039062 L 133.171875 142.789062 " fill-opacity="1" fill-rule="nonzero"/><g fill="rgb(100%, 8.628845%, 8.628845%)" fill-opacity="1"><g transform="translate(74.152999, 288.749981)"><g><path d="M 209.78125 -173.390625 L 209.78125 0 L 157.796875 0 L 157.796875 -106.578125 L 112.046875 -47.3125 L 66.28125 -106.84375 L 66.28125 0 L 16.890625 0 L 16.890625 -173.390625 L 69.40625 -173.390625 L 113.59375 -114.90625 L 158.828125 -173.390625 Z M 209.78125 -173.390625 "/></g></g></g></svg>