<svg xmlns="http://www.w3.org/2000/svg" xmlns:xlink="http://www.w3.org/1999/xlink" width="30" zoomAndPan="magnify" viewBox="0 0 375 374.999991" height="30" preserveAspectRatio="xMidYMid meet" version="1.0"><defs><g><g id="id1"/></g><clipPath id="id2"><path d="M 187.5 23.382812 L 375 23.382812 L 375 375 L 187.5 375 Z M 187.5 23.382812 " clip-rule="nonzero"/></clipPath><clipPath id="id3"><path d="M 16.871094 16.871094 L 358.121094 16.871094 L 358.121094 358.121094 L 16.871094 358.121094 Z M 16.871094 16.871094 " clip-rule="nonzero"/></clipPath></defs><g clip-path="url(#id2)"><path fill="rgb(100%, 100%, 100%)" d="M 249.480469 398.382812 L 500.519531 398.382812 C 534.695312 398.382812 562.5 370.582031 562.5 336.40625 L 562.5 85.363281 C 562.5 51.1875 534.695312 23.382812 500.519531 23.382812 L 249.480469 23.382812 C 215.304688 23.382812 187.5 51.1875 187.5 85.363281 L 187.5 336.40625 C 187.5 370.582031 215.304688 398.382812 249.480469 398.382812 Z M 249.480469 398.382812 " fill-opacity="1" fill-rule="nonzero"/></g><g clip-path="url(#id3)"><path fill="rgb(0%, 0%, 0%)" d="M 73.269531 358.121094 L 301.71875 358.121094 C 332.816406 358.121094 358.121094 332.820312 358.121094 301.71875 L 358.121094 73.269531 C 358.121094 42.171875 332.820312 16.871094 301.71875 16.871094 L 73.269531 16.871094 C 42.171875 16.871094 16.871094 42.171875 16.871094 73.269531 L 16.871094 301.71875 C 16.871094 332.820312 42.171875 358.121094 73.269531 358.121094 Z M 73.269531 358.121094 " fill-opacity="1" fill-rule="nonzero"/></g><g fill="rgb(100%, 8.628845%, 8.628845%)" fill-opacity="1"><g transform="translate(42.691793, 301.421534)"><g><path d="M 268.03125 -221.53125 L 268.03125 0 L 201.59375 0 L 201.59375 -136.171875 L 143.140625 -60.453125 L 84.6875 -136.5 L 84.6875 0 L 21.59375 0 L 21.59375 -221.53125 L 88.671875 -221.53125 L 145.140625 -146.796875 L 202.921875 -221.53125 Z M 268.03125 -221.53125 "/></g></g></g></svg>