<svg xmlns="http://www.w3.org/2000/svg" xmlns:xlink="http://www.w3.org/1999/xlink" width="50" zoomAndPan="magnify" viewBox="0 0 37.5 37.499999" height="50" preserveAspectRatio="xMidYMid meet" version="1.0"><defs><g><g id="id1"/></g><clipPath id="id2"><path d="M 7 2.195312 L 19 2.195312 L 19 35.195312 L 7 35.195312 Z M 7 2.195312 " clip-rule="nonzero"/></clipPath><clipPath id="id3"><path d="M 0.355469 10 L 6 10 L 6 28 L 0.355469 28 Z M 0.355469 10 " clip-rule="nonzero"/></clipPath></defs><g clip-path="url(#id2)"><path fill="rgb(100%, 100%, 100%)" d="M 7.65625 27.171875 L 18.578125 35.195312 L 18.578125 2.195312 L 7.65625 10.21875 Z M 7.65625 27.171875 " fill-opacity="1" fill-rule="nonzero"/></g><g clip-path="url(#id3)"><path fill="rgb(100%, 100%, 100%)" d="M 0.375 10.21875 L 5.53125 10.21875 L 5.53125 27.171875 L 0.375 27.171875 Z M 0.375 10.21875 " fill-opacity="1" fill-rule="nonzero"/></g><g fill="rgb(100%, 100%, 100%)" fill-opacity="1"><g transform="translate(21.009373, 24.80003)"><g><path d="M 4.65625 -6.03125 L 0.59375 -11.796875 L 2.796875 -11.796875 L 5.828125 -7.34375 L 8.84375 -11.796875 L 11.015625 -11.796875 L 6.953125 -6.03125 L 11.25 0 L 9.046875 0 L 5.828125 -4.703125 L 2.578125 0 L 0.390625 0 Z M 4.65625 -6.03125 "/></g></g></g></svg>