<svg xmlns="http://www.w3.org/2000/svg" xmlns:xlink="http://www.w3.org/1999/xlink" width="55" zoomAndPan="magnify" viewBox="0 0 37.5 37.499999" height="55" preserveAspectRatio="xMidYMid meet" version="1.0"><defs><clipPath id="id1"><path d="M 1.328125 2.210938 L 35.828125 2.210938 L 35.828125 31.460938 L 1.328125 31.460938 Z M 1.328125 2.210938 " clip-rule="nonzero"/></clipPath></defs><g clip-path="url(#id1)"><path fill="rgb(100%, 100%, 100%)" d="M 5.582031 31.347656 L 31.574219 31.347656 C 33.917969 31.347656 35.828125 29.402344 35.828125 27.015625 L 35.828125 6.660156 C 35.828125 4.269531 33.917969 2.324219 31.574219 2.324219 L 5.582031 2.324219 C 3.238281 2.324219 1.328125 4.269531 1.328125 6.660156 L 1.328125 27.015625 C 1.328125 29.402344 3.238281 31.347656 5.582031 31.347656 Z M 27.59375 19.859375 C 28.515625 19.859375 29.261719 20.621094 29.261719 21.558594 C 29.261719 22.492188 28.515625 23.253906 27.59375 23.253906 L 21.578125 23.253906 C 20.660156 23.253906 19.914062 22.492188 19.914062 21.558594 L 19.914062 12.117188 C 19.914062 11.179688 20.660156 10.417969 21.578125 10.417969 L 27.59375 10.417969 C 28.515625 10.417969 29.261719 11.179688 29.261719 12.117188 C 29.261719 13.054688 28.515625 13.816406 27.59375 13.816406 L 23.257812 13.816406 L 23.257812 19.859375 Z M 7.894531 12.117188 C 7.894531 11.179688 8.640625 10.417969 9.5625 10.417969 L 15.578125 10.417969 C 16.496094 10.417969 17.246094 11.179688 17.246094 12.117188 C 17.246094 13.054688 16.496094 13.816406 15.578125 13.816406 L 11.230469 13.816406 L 11.230469 19.859375 L 15.578125 19.859375 C 16.496094 19.859375 17.246094 20.621094 17.246094 21.558594 C 17.246094 22.492188 16.496094 23.253906 15.578125 23.253906 L 9.5625 23.253906 C 8.640625 23.253906 7.894531 22.492188 7.894531 21.558594 Z M 7.894531 12.117188 " fill-opacity="1" fill-rule="nonzero"/></g></svg>