<svg xmlns="http://www.w3.org/2000/svg" xmlns:xlink="http://www.w3.org/1999/xlink" width="50" zoomAndPan="magnify" viewBox="0 0 37.5 37.499999" height="50" preserveAspectRatio="xMidYMid meet" version="1.0"><defs><clipPath id="id1"><path d="M 21 0 L 32.085938 0 L 32.085938 37.007812 L 21 37.007812 Z M 21 0 " clip-rule="nonzero"/></clipPath><clipPath id="id2"><path d="M 5.085938 0 L 16 0 L 16 37.007812 L 5.085938 37.007812 Z M 5.085938 0 " clip-rule="nonzero"/></clipPath></defs><g clip-path="url(#id1)"><path fill="rgb(100%, 100%, 100%)" d="M 30.789062 37.125 C 31.476562 37.125 32.085938 36.503906 32.085938 35.8125 L 32.085938 1.6875 C 32.085938 0.996094 31.476562 0.375 30.789062 0.375 L 23.085938 0.375 C 22.398438 0.375 21.789062 0.996094 21.789062 1.6875 L 21.789062 35.8125 C 21.789062 36.503906 22.398438 37.125 23.085938 37.125 Z M 30.789062 37.125 " fill-opacity="1" fill-rule="nonzero"/></g><g clip-path="url(#id2)"><path fill="rgb(100%, 100%, 100%)" d="M 14.085938 37.125 C 14.773438 37.125 15.382812 36.503906 15.382812 35.8125 L 15.382812 1.6875 C 15.382812 0.996094 14.773438 0.375 14.085938 0.375 L 6.382812 0.375 C 5.695312 0.375 5.085938 0.996094 5.085938 1.6875 L 5.085938 35.8125 C 5.085938 36.503906 5.695312 37.125 6.382812 37.125 Z M 14.085938 37.125 " fill-opacity="1" fill-rule="nonzero"/></g></svg>