<?xml version="1.0" encoding="UTF-8"?><svg xmlns="http://www.w3.org/2000/svg" xmlns:xlink="http://www.w3.org/1999/xlink" width="375" zoomAndPan="magnify" viewBox="0 0 375 374.999991" height="374.999991" preserveAspectRatio="xMidYMid meet" version="1.0"><defs><clipPath id="clip-0"><path d="M 42.1875 20 L 337.6875 20 L 337.6875 356 L 42.1875 356 Z M 42.1875 20 " clip-rule="nonzero"/></clipPath></defs><g clip-path="url(#clip-0)"><path fill="rgb(100%, 8.628845%, 8.628845%)" d="M 327.5625 169.808594 L 73.585938 23.277344 C 67.136719 19.558594 59.207031 19.558594 52.761719 23.277344 C 46.316406 26.992188 42.347656 33.859375 42.347656 41.300781 L 42.347656 334.390625 C 42.347656 341.828125 46.316406 348.699219 52.761719 352.410156 C 55.984375 354.296875 59.578125 355.203125 63.175781 355.203125 C 66.769531 355.203125 70.367188 354.265625 73.585938 352.410156 L 327.5625 205.878906 C 334.023438 202.160156 337.96875 195.289062 337.96875 187.851562 C 337.96875 180.414062 334.007812 173.535156 327.5625 169.808594 Z M 327.5625 169.808594 " fill-opacity="1" fill-rule="nonzero"/></g></svg>