<svg xmlns="http://www.w3.org/2000/svg" xmlns:xlink="http://www.w3.org/1999/xlink" width="92" zoomAndPan="magnify" viewBox="0 0 37.5 37.499999" height="92" preserveAspectRatio="xMidYMid meet" version="1.0"><defs><clipPath id="id1"><path d="M 0.488281 0.488281 L 37.007812 0.488281 L 37.007812 37.007812 L 0.488281 37.007812 Z M 0.488281 0.488281 " clip-rule="nonzero"/></clipPath></defs><g clip-path="url(#id1)"><path fill="rgb(100%, 100%, 100%)" d="M 18.863281 0.488281 C 18.261719 0.488281 17.660156 0.515625 17.0625 0.574219 C 16.460938 0.636719 15.867188 0.722656 15.277344 0.839844 C 14.6875 0.957031 14.105469 1.105469 13.527344 1.277344 C 12.953125 1.453125 12.386719 1.65625 11.832031 1.886719 C 11.273438 2.117188 10.730469 2.375 10.199219 2.65625 C 9.667969 2.941406 9.152344 3.25 8.652344 3.585938 C 8.152344 3.917969 7.671875 4.277344 7.207031 4.660156 C 6.742188 5.039062 6.296875 5.445312 5.871094 5.871094 C 5.445312 6.296875 5.039062 6.742188 4.660156 7.207031 C 4.277344 7.671875 3.917969 8.152344 3.585938 8.652344 C 3.25 9.152344 2.941406 9.667969 2.65625 10.199219 C 2.375 10.730469 2.117188 11.273438 1.886719 11.832031 C 1.65625 12.386719 1.453125 12.953125 1.277344 13.527344 C 1.105469 14.105469 0.957031 14.6875 0.839844 15.277344 C 0.722656 15.867188 0.636719 16.460938 0.574219 17.0625 C 0.515625 17.660156 0.488281 18.261719 0.488281 18.863281 C 0.488281 19.464844 0.515625 20.066406 0.574219 20.664062 C 0.636719 21.261719 0.722656 21.855469 0.839844 22.449219 C 0.957031 23.039062 1.105469 23.621094 1.277344 24.195312 C 1.453125 24.773438 1.65625 25.339844 1.886719 25.894531 C 2.117188 26.449219 2.375 26.992188 2.65625 27.523438 C 2.941406 28.054688 3.25 28.570312 3.585938 29.070312 C 3.917969 29.570312 4.277344 30.054688 4.660156 30.519531 C 5.039062 30.984375 5.445312 31.429688 5.871094 31.855469 C 6.296875 32.28125 6.742188 32.683594 7.207031 33.066406 C 7.671875 33.449219 8.152344 33.804688 8.652344 34.140625 C 9.152344 34.476562 9.667969 34.785156 10.199219 35.066406 C 10.730469 35.351562 11.273438 35.609375 11.832031 35.839844 C 12.386719 36.070312 12.953125 36.273438 13.527344 36.445312 C 14.105469 36.621094 14.6875 36.765625 15.277344 36.882812 C 15.867188 37 16.460938 37.089844 17.0625 37.148438 C 17.660156 37.207031 18.261719 37.238281 18.863281 37.238281 C 19.464844 37.238281 20.066406 37.207031 20.664062 37.148438 C 21.261719 37.089844 21.855469 37 22.449219 36.882812 C 23.039062 36.765625 23.621094 36.621094 24.195312 36.445312 C 24.773438 36.273438 25.339844 36.070312 25.894531 35.839844 C 26.449219 35.609375 26.992188 35.351562 27.523438 35.066406 C 28.054688 34.785156 28.570312 34.476562 29.070312 34.140625 C 29.570312 33.804688 30.054688 33.449219 30.519531 33.066406 C 30.984375 32.683594 31.429688 32.28125 31.855469 31.855469 C 32.28125 31.429688 32.683594 30.984375 33.066406 30.519531 C 33.449219 30.054688 33.804688 29.570312 34.140625 29.070312 C 34.476562 28.570312 34.785156 28.054688 35.066406 27.523438 C 35.351562 26.992188 35.609375 26.449219 35.839844 25.894531 C 36.070312 25.339844 36.273438 24.773438 36.445312 24.195312 C 36.621094 23.621094 36.765625 23.039062 36.882812 22.449219 C 37 21.855469 37.089844 21.261719 37.148438 20.664062 C 37.207031 20.066406 37.238281 19.464844 37.238281 18.863281 C 37.238281 18.261719 37.207031 17.660156 37.148438 17.0625 C 37.085938 16.464844 37 15.867188 36.882812 15.277344 C 36.761719 14.6875 36.617188 14.105469 36.441406 13.53125 C 36.265625 12.957031 36.0625 12.390625 35.832031 11.832031 C 35.601562 11.277344 35.34375 10.734375 35.0625 10.203125 C 34.777344 9.675781 34.46875 9.160156 34.132812 8.660156 C 33.800781 8.160156 33.441406 7.675781 33.058594 7.210938 C 32.679688 6.746094 32.273438 6.300781 31.847656 5.875 C 31.425781 5.449219 30.980469 5.046875 30.515625 4.664062 C 30.050781 4.28125 29.566406 3.925781 29.066406 3.589844 C 28.566406 3.257812 28.050781 2.945312 27.519531 2.664062 C 26.988281 2.378906 26.445312 2.121094 25.890625 1.890625 C 25.335938 1.660156 24.769531 1.457031 24.195312 1.285156 C 23.617188 1.109375 23.035156 0.960938 22.445312 0.84375 C 21.855469 0.726562 21.261719 0.636719 20.664062 0.578125 C 20.0625 0.519531 19.464844 0.488281 18.863281 0.488281 Z M 27.417969 19.890625 L 15.933594 25.632812 C 15.84375 25.675781 15.753906 25.707031 15.65625 25.726562 C 15.5625 25.75 15.464844 25.757812 15.367188 25.75 C 15.269531 25.746094 15.171875 25.730469 15.078125 25.703125 C 14.984375 25.671875 14.898438 25.632812 14.8125 25.582031 C 14.730469 25.53125 14.65625 25.46875 14.585938 25.398438 C 14.519531 25.328125 14.460938 25.25 14.414062 25.164062 C 14.367188 25.078125 14.332031 24.988281 14.304688 24.894531 C 14.28125 24.800781 14.269531 24.703125 14.269531 24.605469 L 14.269531 13.121094 C 14.269531 13.023438 14.28125 12.925781 14.304688 12.832031 C 14.332031 12.738281 14.367188 12.644531 14.414062 12.5625 C 14.460938 12.476562 14.519531 12.398438 14.585938 12.328125 C 14.65625 12.253906 14.730469 12.195312 14.8125 12.144531 C 14.898438 12.089844 14.984375 12.050781 15.078125 12.023438 C 15.171875 11.992188 15.269531 11.976562 15.367188 11.972656 C 15.464844 11.96875 15.5625 11.976562 15.65625 11.996094 C 15.753906 12.019531 15.84375 12.050781 15.933594 12.09375 L 27.417969 17.835938 C 27.609375 17.933594 27.765625 18.074219 27.878906 18.257812 C 27.996094 18.445312 28.050781 18.644531 28.050781 18.863281 C 28.050781 19.082031 27.996094 19.28125 27.878906 19.46875 C 27.765625 19.652344 27.609375 19.792969 27.417969 19.890625 Z M 27.417969 19.890625 " fill-opacity="1" fill-rule="nonzero"/></g></svg>