<svg xmlns="http://www.w3.org/2000/svg" xmlns:xlink="http://www.w3.org/1999/xlink" width="50" zoomAndPan="magnify" viewBox="0 0 37.5 37.499999" height="50" preserveAspectRatio="xMidYMid meet" version="1.0"><defs><clipPath id="id1"><path d="M 0 0 L 37.007812 0 L 37.007812 37.007812 L 0 37.007812 Z M 0 0 " clip-rule="nonzero"/></clipPath><clipPath id="id2"><path d="M 23 23 L 36.710938 23 L 36.710938 36.710938 L 23 36.710938 Z M 23 23 " clip-rule="nonzero"/></clipPath><clipPath id="id3"><path d="M 0.710938 23 L 14 23 L 14 36.710938 L 0.710938 36.710938 Z M 0.710938 23 " clip-rule="nonzero"/></clipPath><clipPath id="id4"><path d="M 23 0.710938 L 36.710938 0.710938 L 36.710938 14 L 23 14 Z M 23 0.710938 " clip-rule="nonzero"/></clipPath><clipPath id="id5"><path d="M 0.710938 0.710938 L 14 0.710938 L 14 14 L 0.710938 14 Z M 0.710938 0.710938 " clip-rule="nonzero"/></clipPath></defs><g clip-path="url(#id1)"><path fill="rgb(0%, 0%, 0%)" d="M 0 0 L 37.5 0 L 37.5 37.5 L 0 37.5 Z M 0 0 " fill-opacity="1" fill-rule="nonzero"/><path fill="rgb(100%, 100%, 100%)" d="M 0 0 L 37.5 0 L 37.5 37.5 L 0 37.5 Z M 0 0 " fill-opacity="1" fill-rule="nonzero"/><path fill="rgb(0%, 0%, 0%)" d="M 0 0 L 37.5 0 L 37.5 37.5 L 0 37.5 Z M 0 0 " fill-opacity="1" fill-rule="nonzero"/></g><g clip-path="url(#id2)"><path fill="rgb(100%, 100%, 100%)" d="M 23.730469 36.710938 L 28.625 36.710938 L 28.625 28.625 L 36.710938 28.625 L 36.710938 23.730469 L 23.730469 23.730469 Z M 23.730469 36.710938 " fill-opacity="1" fill-rule="nonzero"/></g><g clip-path="url(#id3)"><path fill="rgb(100%, 100%, 100%)" d="M 0.710938 28.625 L 8.800781 28.625 L 8.800781 36.710938 L 13.695312 36.710938 L 13.695312 23.730469 L 0.710938 23.730469 Z M 0.710938 28.625 " fill-opacity="1" fill-rule="nonzero"/></g><g clip-path="url(#id4)"><path fill="rgb(100%, 100%, 100%)" d="M 28.625 0.710938 L 23.730469 0.710938 L 23.730469 13.695312 L 36.710938 13.695312 L 36.710938 8.800781 L 28.625 8.800781 Z M 28.625 0.710938 " fill-opacity="1" fill-rule="nonzero"/></g><g clip-path="url(#id5)"><path fill="rgb(100%, 100%, 100%)" d="M 8.800781 8.800781 L 0.710938 8.800781 L 0.710938 13.695312 L 13.695312 13.695312 L 13.695312 0.710938 L 8.800781 0.710938 Z M 8.800781 8.800781 " fill-opacity="1" fill-rule="nonzero"/></g></svg>