<svg xmlns="http://www.w3.org/2000/svg" xmlns:xlink="http://www.w3.org/1999/xlink" width="50" zoomAndPan="magnify" viewBox="0 0 37.5 37.499999" height="50" preserveAspectRatio="xMidYMid meet" version="1.0"><defs><clipPath id="id1"><path d="M 28 8 L 33.839844 8 L 33.839844 28 L 28 28 Z M 28 8 " clip-rule="nonzero"/></clipPath><clipPath id="id2"><path d="M 8 2.195312 L 19 2.195312 L 19 35.195312 L 8 35.195312 Z M 8 2.195312 " clip-rule="nonzero"/></clipPath><clipPath id="id3"><path d="M 0.765625 10 L 6 10 L 6 28 L 0.765625 28 Z M 0.765625 10 " clip-rule="nonzero"/></clipPath></defs><path fill="rgb(100%, 100%, 100%)" d="M 23.5 17.914062 C 23.5 20.152344 22.0625 22.0625 20.039062 22.761719 L 20.039062 13.066406 C 22.0625 13.765625 23.5 15.675781 23.5 17.914062 Z M 23.5 17.914062 " fill-opacity="1" fill-rule="nonzero"/><g clip-path="url(#id1)"><path fill="rgb(100%, 100%, 100%)" d="M 29.386719 27.1875 C 28.546875 27.1875 28.050781 26.203125 28.554688 25.539062 C 30.230469 23.316406 31.117188 20.679688 31.117188 17.914062 C 31.117188 15.148438 30.230469 12.511719 28.554688 10.289062 C 28.210938 9.835938 28.304688 9.1875 28.765625 8.847656 C 29.222656 8.507812 29.875 8.597656 30.21875 9.054688 C 32.164062 11.636719 33.191406 14.699219 33.191406 17.914062 C 33.191406 21.128906 32.164062 24.191406 30.21875 26.773438 C 30.011719 27.042969 29.699219 27.1875 29.386719 27.1875 Z M 29.386719 27.1875 " fill-opacity="1" fill-rule="nonzero"/></g><path fill="rgb(100%, 100%, 100%)" d="M 26.410156 24.226562 C 25.59375 24.234375 25.097656 23.300781 25.542969 22.632812 C 26.472656 21.246094 26.964844 19.613281 26.964844 17.914062 C 26.964844 16.214844 26.472656 14.582031 25.542969 13.195312 C 25.226562 12.722656 25.359375 12.082031 25.835938 11.765625 C 26.3125 11.449219 26.957031 11.578125 27.273438 12.054688 C 28.429688 13.78125 29.039062 15.808594 29.039062 17.914062 C 29.039062 20.019531 28.429688 22.046875 27.273438 23.773438 C 27.082031 24.058594 26.746094 24.222656 26.410156 24.226562 Z M 26.410156 24.226562 " fill-opacity="1" fill-rule="nonzero"/><g clip-path="url(#id2)"><path fill="rgb(100%, 100%, 100%)" d="M 8.066406 27.171875 L 18.988281 35.195312 L 18.988281 2.195312 L 8.066406 10.21875 Z M 8.066406 27.171875 " fill-opacity="1" fill-rule="nonzero"/></g><g clip-path="url(#id3)"><path fill="rgb(100%, 100%, 100%)" d="M 0.78125 10.21875 L 5.941406 10.21875 L 5.941406 27.171875 L 0.78125 27.171875 Z M 0.78125 10.21875 " fill-opacity="1" fill-rule="nonzero"/></g></svg>